<svg width="98" height="55" viewBox="0 0 98 55" fill="none" xmlns="http://www.w3.org/2000/svg">
<g clip-path="url(#clip0_1_3631)">
<path d="M0.544437 48.7441C0.544101 48.675 0.570919 48.6085 0.619119 48.5589C0.66732 48.5094 0.733049 48.4807 0.802163 48.4791H2.27955C3.32497 48.4791 4.01466 49.0357 4.01466 49.9493V49.9626C4.01466 50.962 3.17977 51.4787 2.19243 51.4787H1.06715V52.8835C1.06715 52.9528 1.03961 53.0193 0.990599 53.0683C0.941585 53.1173 0.875108 53.1448 0.805793 53.1448C0.736477 53.1448 0.67 53.1173 0.620986 53.0683C0.571972 53.0193 0.544437 52.9528 0.544437 52.8835V48.7441ZM2.213 51.0019C2.98134 51.0019 3.48469 50.5918 3.48469 49.9819V49.9722C3.48469 49.3104 2.98739 48.9655 2.23962 48.9655H1.06715V51.0056L2.213 51.0019Z" fill="#182958"/>
<path d="M4.55811 52.1212V52.1078C4.55811 51.3819 5.15342 51.0019 6.02097 51.0019C6.37718 50.9983 6.73196 51.0476 7.07366 51.1483V51.0273C7.07366 50.4114 6.69735 50.0932 6.05485 50.0932C5.74845 50.093 5.44559 50.1587 5.16673 50.2856C5.13758 50.298 5.10642 50.305 5.07477 50.3062C5.01708 50.306 4.96162 50.2839 4.91961 50.2444C4.8776 50.2048 4.85218 50.1508 4.8485 50.0932C4.84901 50.0483 4.86239 50.0045 4.88705 49.967C4.91172 49.9294 4.94663 49.8998 4.98765 49.8815C5.33981 49.7249 5.72148 49.6456 6.10688 49.6492C6.59087 49.6492 6.96113 49.7702 7.2128 50.0267C7.44512 50.259 7.56491 50.5893 7.56491 51.0273V52.9016C7.56621 52.9342 7.56092 52.9667 7.54934 52.9972C7.53777 53.0277 7.52015 53.0555 7.49754 53.079C7.47494 53.1025 7.44782 53.1212 7.41781 53.134C7.3878 53.1467 7.35552 53.1533 7.32291 53.1533C7.25873 53.1533 7.19718 53.1278 7.15179 53.0824C7.10641 53.037 7.08092 52.9754 7.08092 52.9113V52.5979C6.93645 52.7876 6.74875 52.9401 6.53344 53.0426C6.31813 53.1451 6.08145 53.1946 5.84311 53.1871C5.20303 53.1871 4.55811 52.8229 4.55811 52.1212ZM7.08092 51.8562V51.5258C6.75417 51.4287 6.41509 51.3794 6.07421 51.3794C5.43171 51.3794 5.07477 51.6577 5.07477 52.0885V52.1018C5.07477 52.5325 5.47164 52.7842 5.93506 52.7842C6.56425 52.7842 7.08092 52.3994 7.08092 51.8562Z" fill="#182958"/>
<path d="M8.46988 52.7552C8.44101 52.7337 8.41755 52.7058 8.40138 52.6736C8.3852 52.6415 8.37676 52.606 8.37671 52.57C8.37766 52.5112 8.40187 52.4551 8.44405 52.4141C8.48622 52.373 8.54292 52.3504 8.60176 52.351C8.64536 52.3508 8.68783 52.3649 8.72276 52.3909C9.04071 52.6193 9.4204 52.7458 9.81175 52.7539C10.2219 52.7539 10.5208 52.5422 10.5208 52.2107V52.1974C10.5208 51.8537 10.1167 51.7206 9.66655 51.5924C9.12932 51.4399 8.53401 51.2548 8.53401 50.6244V50.6111C8.53401 50.0218 9.018 49.631 9.69922 49.631C10.0803 49.6397 10.4537 49.7397 10.7882 49.9226C10.8253 49.944 10.8561 49.9749 10.8773 50.0121C10.8986 50.0493 10.9096 50.0915 10.9092 50.1343C10.9089 50.1635 10.9028 50.1923 10.8913 50.2192C10.8798 50.246 10.8631 50.2703 10.8422 50.2906C10.8213 50.311 10.7966 50.327 10.7694 50.3378C10.7423 50.3485 10.7133 50.3538 10.6841 50.3533C10.6451 50.3531 10.6066 50.344 10.5716 50.3267C10.3018 50.1639 9.99482 50.0727 9.67986 50.0617C9.27572 50.0617 9.018 50.2735 9.018 50.559V50.5711C9.018 50.8966 9.44149 51.0225 9.89886 51.1616C10.4288 51.3201 10.9975 51.5246 10.9975 52.1417V52.1502C10.9975 52.7987 10.4615 53.1762 9.77908 53.1762C9.31065 53.1683 8.85508 53.0218 8.46988 52.7552Z" fill="#182958"/>
<path d="M11.6909 52.1212V52.1079C11.6909 51.3819 12.2862 51.0019 13.1538 51.0019C13.51 50.9983 13.8648 51.0476 14.2065 51.1483V51.0273C14.2065 50.4115 13.829 50.0932 13.1877 50.0932C12.8813 50.0931 12.5784 50.1587 12.2995 50.2856C12.2704 50.298 12.2392 50.305 12.2076 50.3062C12.1495 50.3066 12.0934 50.2848 12.0509 50.2452C12.0084 50.2056 11.9826 50.1512 11.9789 50.0932C11.9794 50.0483 11.9928 50.0045 12.0174 49.967C12.0421 49.9294 12.077 49.8998 12.118 49.8815C12.4702 49.7248 12.8519 49.6455 13.2373 49.6492C13.7213 49.6492 14.0915 49.7702 14.3432 50.0267C14.5755 50.259 14.6941 50.5893 14.6941 51.0273V52.9016C14.6954 52.9342 14.6901 52.9667 14.6785 52.9972C14.6669 53.0277 14.6493 53.0555 14.6267 53.079C14.6041 53.1025 14.577 53.1212 14.547 53.134C14.517 53.1467 14.4847 53.1533 14.4521 53.1533C14.3879 53.1533 14.3264 53.1278 14.281 53.0824C14.2356 53.037 14.2101 52.9755 14.2101 52.9113V52.5979C14.0656 52.7876 13.8779 52.9401 13.6626 53.0426C13.4473 53.1451 13.2106 53.1946 12.9723 53.1872C12.3322 53.1872 11.6909 52.823 11.6909 52.1212ZM14.2137 51.8562V51.5259C13.887 51.4287 13.5479 51.3794 13.207 51.3794C12.5645 51.3794 12.2076 51.6577 12.2076 52.0885V52.1018C12.2076 52.5326 12.6045 52.7842 13.0679 52.7842C13.6971 52.7842 14.2137 52.3995 14.2137 51.8562Z" fill="#182958"/>
<path d="M15.7832 49.9165C15.7828 49.849 15.809 49.784 15.8561 49.7356C15.9031 49.6872 15.9673 49.6592 16.0348 49.6576C16.069 49.6571 16.1029 49.6634 16.1345 49.6763C16.1661 49.6891 16.1949 49.7082 16.219 49.7323C16.2432 49.7565 16.2622 49.7852 16.2751 49.8168C16.2879 49.8485 16.2943 49.8824 16.2938 49.9165V50.559C16.5455 49.9891 17.0415 49.6443 17.4723 49.6443C17.5064 49.6428 17.5403 49.6486 17.572 49.6612C17.6037 49.6738 17.6324 49.6929 17.6561 49.7174C17.6799 49.7418 17.6982 49.771 17.7099 49.803C17.7216 49.8351 17.7264 49.8692 17.724 49.9032C17.7256 49.9665 17.7033 50.0282 17.6616 50.0759C17.62 50.1236 17.5619 50.154 17.4989 50.1609C16.8358 50.2408 16.2889 50.7369 16.2889 51.7242V52.8894C16.2889 52.9571 16.262 53.0221 16.2142 53.07C16.1663 53.1178 16.1013 53.1447 16.0336 53.1447C15.9659 53.1447 15.901 53.1178 15.8531 53.07C15.8052 53.0221 15.7783 52.9571 15.7783 52.8894L15.7832 49.9165Z" fill="#182958"/>
<path d="M20.5383 48.7441C20.5383 48.6749 20.5654 48.6084 20.6138 48.5588C20.6622 48.5093 20.728 48.4807 20.7973 48.4791H22.1428C23.5947 48.4791 24.6063 49.4786 24.6063 50.7781V50.7914C24.6111 52.1018 23.6044 53.1182 22.1428 53.1182H20.7973C20.728 53.1166 20.6622 53.088 20.6138 53.0385C20.5654 52.989 20.5383 52.9225 20.5383 52.8532V48.7441ZM22.1428 52.6342C23.3152 52.6342 24.063 51.8392 24.063 50.812V50.7999C24.063 49.7726 23.3152 48.9643 22.1428 48.9643H21.0538V52.6342H22.1428Z" fill="#182958"/>
<path d="M25.6311 48.6182C25.6311 48.5379 25.663 48.461 25.7197 48.4043C25.7764 48.3475 25.8534 48.3157 25.9336 48.3157C26.0138 48.3157 26.0908 48.3475 26.1475 48.4043C26.2042 48.461 26.2361 48.5379 26.2361 48.6182V48.7041C26.2361 48.7843 26.2042 48.8612 26.1475 48.918C26.0908 48.9747 26.0138 49.0066 25.9336 49.0066C25.8534 49.0066 25.7764 48.9747 25.7197 48.918C25.663 48.8612 25.6311 48.7843 25.6311 48.7041V48.6182ZM25.6783 49.9165C25.678 49.849 25.7041 49.784 25.7512 49.7356C25.7983 49.6871 25.8625 49.6591 25.93 49.6575C25.9641 49.6571 25.9979 49.6634 26.0295 49.6763C26.061 49.6891 26.0897 49.7082 26.1137 49.7324C26.1378 49.7565 26.1567 49.7853 26.1694 49.8169C26.1821 49.8485 26.1883 49.8824 26.1877 49.9165V52.8894C26.189 52.9232 26.1835 52.9568 26.1714 52.9883C26.1593 53.0199 26.1409 53.0486 26.1174 53.0728C26.0938 53.097 26.0656 53.1162 26.0344 53.1292C26.0033 53.1422 25.9698 53.1487 25.936 53.1483C25.9019 53.1488 25.8681 53.1425 25.8365 53.1296C25.805 53.1168 25.7763 53.0977 25.7522 53.0735C25.7282 53.0494 25.7093 53.0206 25.6966 52.989C25.6839 52.9574 25.6776 52.9235 25.6783 52.8894V49.9165Z" fill="#182958"/>
<path d="M27.4593 53.7837C27.4196 53.7643 27.3862 53.7342 27.3628 53.6968C27.3395 53.6593 27.3272 53.616 27.3274 53.5719C27.3315 53.5125 27.3573 53.4568 27.3999 53.4153C27.4426 53.3737 27.499 53.3494 27.5585 53.3469C27.5983 53.3468 27.6374 53.3581 27.671 53.3795C28.0283 53.6211 28.4497 53.7505 28.881 53.751C29.636 53.751 30.1261 53.3335 30.1261 52.5325V52.1284C29.8272 52.5253 29.411 52.8544 28.7818 52.8544C28.5701 52.858 28.3598 52.819 28.1634 52.7399C27.967 52.6607 27.7885 52.543 27.6384 52.3936C27.4884 52.2442 27.3698 52.0662 27.2898 51.8702C27.2098 51.6742 27.1699 51.4641 27.1725 51.2524V51.2391C27.1733 50.895 27.2837 50.5601 27.4875 50.283C27.6914 50.0058 27.9782 49.8007 28.3065 49.6975C28.6347 49.5942 28.9873 49.5981 29.3131 49.7087C29.6389 49.8192 29.9211 50.0306 30.1188 50.3122V49.9214C30.1175 49.8874 30.123 49.8535 30.1351 49.8218C30.1471 49.79 30.1654 49.7609 30.1889 49.7363C30.2123 49.7117 30.2405 49.6921 30.2717 49.6786C30.3029 49.665 30.3365 49.6579 30.3705 49.6576C30.4391 49.6576 30.505 49.6849 30.5536 49.7335C30.6021 49.782 30.6294 49.8479 30.6294 49.9166V52.5192C30.6294 53.048 30.4697 53.4521 30.1914 53.7292C29.8877 54.0341 29.4303 54.1866 28.887 54.1866C28.3827 54.1892 27.8878 54.0496 27.4593 53.7837ZM30.1418 51.2427V51.2294C30.1418 50.5276 29.5368 50.0714 28.8834 50.0714C28.23 50.0714 27.6976 50.5216 27.6976 51.2233V51.2367C27.6968 51.3917 27.727 51.5452 27.7866 51.6883C27.8461 51.8315 27.9338 51.9612 28.0443 52.0698C28.1549 52.1784 28.2861 52.2638 28.4302 52.3208C28.5743 52.3779 28.7284 52.4054 28.8834 52.4019C29.532 52.3994 30.1418 51.9288 30.1418 51.2403V51.2427Z" fill="#182958"/>
<path d="M31.7705 48.6182C31.7705 48.5379 31.8024 48.461 31.8591 48.4043C31.9158 48.3475 31.9928 48.3157 32.073 48.3157C32.1532 48.3157 32.2302 48.3475 32.2869 48.4043C32.3436 48.461 32.3755 48.5379 32.3755 48.6182V48.7041C32.3755 48.7843 32.3436 48.8612 32.2869 48.918C32.2302 48.9747 32.1532 49.0066 32.073 49.0066C31.9928 49.0066 31.9158 48.9747 31.8591 48.918C31.8024 48.8612 31.7705 48.7843 31.7705 48.7041V48.6182ZM31.8177 49.9165C31.8173 49.8498 31.8428 49.7855 31.8889 49.7372C31.9349 49.6889 31.9979 49.6604 32.0645 49.6575C32.0986 49.6571 32.1324 49.6634 32.164 49.6763C32.1956 49.6891 32.2243 49.7082 32.2483 49.7324C32.2723 49.7565 32.2913 49.7853 32.304 49.8169C32.3167 49.8485 32.3229 49.8824 32.3223 49.9165V52.8894C32.3236 52.9232 32.318 52.9568 32.3059 52.9883C32.2938 53.0199 32.2755 53.0486 32.2519 53.0728C32.2284 53.097 32.2002 53.1162 32.169 53.1292C32.1378 53.1422 32.1043 53.1487 32.0706 53.1483C32.0365 53.1488 32.0027 53.1425 31.9711 53.1296C31.9395 53.1168 31.9109 53.0977 31.8868 53.0735C31.8628 53.0494 31.8438 53.0206 31.8311 52.989C31.8184 52.9574 31.8122 52.9235 31.8129 52.8894L31.8177 49.9165Z" fill="#182958"/>
<path d="M33.6921 52.207V50.1416H33.4138C33.3547 50.1398 33.2985 50.1155 33.2567 50.0737C33.2148 50.0318 33.1905 49.9756 33.1887 49.9165C33.1894 49.857 33.2133 49.8002 33.2553 49.7581C33.2974 49.716 33.3543 49.6921 33.4138 49.6915H33.6921V48.8832C33.6913 48.8497 33.6971 48.8164 33.7093 48.7851C33.7215 48.7539 33.7398 48.7254 33.7631 48.7013C33.7864 48.6772 33.8143 48.658 33.8451 48.6448C33.8759 48.6316 33.909 48.6246 33.9425 48.6243C34.0108 48.6255 34.076 48.6532 34.1243 48.7015C34.1726 48.7498 34.2002 48.8149 34.2015 48.8832V49.6915H35.0896C35.1499 49.6917 35.2077 49.7153 35.251 49.7573C35.2943 49.7992 35.3197 49.8563 35.3219 49.9165C35.3206 49.9771 35.2955 50.0347 35.252 50.0768C35.2085 50.119 35.1502 50.1422 35.0896 50.1416H34.2027V52.1417C34.2027 52.5579 34.435 52.7104 34.7786 52.7104C34.8837 52.7065 34.9879 52.6911 35.0896 52.6644C35.1476 52.6647 35.2031 52.6879 35.2441 52.7289C35.2851 52.7699 35.3083 52.8254 35.3086 52.8834C35.3077 52.9274 35.2933 52.97 35.2673 53.0055C35.2413 53.0411 35.2051 53.0677 35.1634 53.0819C35.0034 53.1456 34.8323 53.1769 34.6601 53.1738C34.1083 53.1738 33.6921 52.9028 33.6921 52.207Z" fill="#182958"/>
<path d="M35.9365 52.1211V52.1078C35.9365 51.3818 36.5318 51.0019 37.3994 51.0019C37.7556 50.9982 38.1104 51.0476 38.4521 51.1483V51.0273C38.4521 50.4114 38.0746 50.0932 37.4333 50.0932C37.1256 50.0929 36.8214 50.1589 36.5415 50.2868C36.512 50.2993 36.4804 50.3063 36.4483 50.3074C36.3899 50.3068 36.3339 50.2837 36.292 50.2429C36.2501 50.2021 36.2255 50.1468 36.2233 50.0883C36.2238 50.0434 36.2372 49.9996 36.2618 49.9621C36.2865 49.9246 36.3214 49.8949 36.3624 49.8766C36.7146 49.7199 37.0963 49.6406 37.4817 49.6443C37.9657 49.6443 38.3359 49.7653 38.5876 50.0218C38.8199 50.2541 38.9385 50.5844 38.9385 51.0225V52.8967C38.9398 52.9293 38.9345 52.9618 38.9229 52.9923C38.9114 53.0228 38.8937 53.0506 38.8711 53.0741C38.8485 53.0976 38.8214 53.1163 38.7914 53.1291C38.7614 53.1419 38.7291 53.1484 38.6965 53.1484C38.6323 53.1484 38.5708 53.1229 38.5254 53.0775C38.48 53.0321 38.4545 52.9706 38.4545 52.9064V52.5979C38.31 52.7876 38.1223 52.94 37.907 53.0425C37.6917 53.145 37.455 53.1946 37.2167 53.1871C36.5718 53.1871 35.9365 52.8229 35.9365 52.1211ZM38.4593 51.8561V51.5258C38.1326 51.4287 37.7935 51.3794 37.4526 51.3794C36.8101 51.3794 36.452 51.6577 36.452 52.0884V52.1018C36.452 52.5325 36.8501 52.7842 37.3135 52.7842C37.9366 52.7842 38.4533 52.3994 38.4533 51.8561H38.4593Z" fill="#182958"/>
<path d="M40.0697 48.5057C40.0673 48.4707 40.0721 48.4357 40.0838 48.4027C40.0955 48.3697 40.1139 48.3395 40.1378 48.3139C40.1616 48.2883 40.1905 48.2679 40.2226 48.2539C40.2548 48.24 40.2894 48.2328 40.3244 48.2328C40.3594 48.2328 40.394 48.24 40.4261 48.2539C40.4582 48.2679 40.4871 48.2883 40.511 48.3139C40.5349 48.3395 40.5533 48.3697 40.565 48.4027C40.5767 48.4357 40.5815 48.4707 40.5791 48.5057V52.8894C40.5804 52.9232 40.5749 52.9568 40.5628 52.9884C40.5507 53.0199 40.5323 53.0486 40.5088 53.0729C40.4852 53.0971 40.457 53.1162 40.4258 53.1292C40.3947 53.1422 40.3612 53.1487 40.3274 53.1484C40.2933 53.1489 40.2595 53.1425 40.2279 53.1296C40.1964 53.1168 40.1677 53.0977 40.1437 53.0735C40.1196 53.0494 40.1007 53.0206 40.088 52.989C40.0753 52.9574 40.069 52.9235 40.0697 52.8894V48.5057Z" fill="#182958"/>
<path d="M43.7651 51.1749V48.7102C43.7651 48.6409 43.7927 48.5744 43.8417 48.5254C43.8907 48.4764 43.9572 48.4488 44.0265 48.4488C44.0958 48.4488 44.1623 48.4764 44.2113 48.5254C44.2603 48.5744 44.2878 48.6409 44.2878 48.7102V51.141C44.2878 52.1417 44.8239 52.7043 45.7047 52.7043C46.559 52.7043 47.1023 52.1877 47.1023 51.1749V48.7102C47.0998 48.6743 47.1048 48.6383 47.1168 48.6044C47.1289 48.5705 47.1478 48.5394 47.1724 48.5131C47.1969 48.4868 47.2266 48.4659 47.2596 48.4515C47.2926 48.4372 47.3282 48.4298 47.3642 48.4298C47.4002 48.4298 47.4358 48.4372 47.4688 48.4515C47.5018 48.4659 47.5315 48.4868 47.5561 48.5131C47.5806 48.5394 47.5995 48.5705 47.6116 48.6044C47.6237 48.6383 47.6286 48.6743 47.6262 48.7102V51.1302C47.6262 52.4805 46.8506 53.1871 45.6902 53.1871C44.5298 53.1871 43.7651 52.4853 43.7651 51.1749Z" fill="#182958"/>
<path d="M48.864 48.7174C48.8652 48.6491 48.8929 48.584 48.9412 48.5357C48.9895 48.4874 49.0546 48.4597 49.1229 48.4585H49.1822C49.231 48.4592 49.2789 48.4723 49.3213 48.4966C49.3636 48.521 49.399 48.5558 49.4242 48.5976L51.0806 51.0878L52.7359 48.5976C52.7607 48.5554 52.796 48.5204 52.8385 48.496C52.8809 48.4716 52.9289 48.4587 52.9779 48.4585H53.0372C53.1053 48.4597 53.1704 48.4875 53.2185 48.5358C53.2666 48.5841 53.294 48.6493 53.2949 48.7174V52.8834C53.2952 52.9525 53.2684 53.019 53.2202 53.0686C53.172 53.1181 53.1063 53.1468 53.0372 53.1484C52.9673 53.1471 52.9006 53.1188 52.8512 53.0694C52.8017 53.02 52.7734 52.9533 52.7722 52.8834V49.4265L51.2888 51.6044C51.267 51.6438 51.2354 51.6768 51.197 51.7001C51.1586 51.7235 51.1147 51.7364 51.0698 51.7375C51.024 51.7364 50.9793 51.7235 50.9399 51.7002C50.9005 51.6769 50.8678 51.644 50.8447 51.6044L49.3685 49.4325V52.8894C49.3685 52.9572 49.3416 53.0221 49.2937 53.07C49.2459 53.1179 49.1809 53.1448 49.1132 53.1448C49.0455 53.1448 48.9806 53.1179 48.9327 53.07C48.8848 53.0221 48.8579 52.9572 48.8579 52.8894L48.864 48.7174Z" fill="#182958"/>
<path d="M54.6127 48.7102C54.6102 48.6743 54.6152 48.6383 54.6272 48.6044C54.6393 48.5705 54.6582 48.5394 54.6828 48.5131C54.7073 48.4868 54.737 48.4659 54.77 48.4515C54.803 48.4372 54.8386 48.4298 54.8746 48.4298C54.9106 48.4298 54.9462 48.4372 54.9792 48.4515C55.0122 48.4659 55.0419 48.4868 55.0665 48.5131C55.091 48.5394 55.1099 48.5705 55.122 48.6044C55.1341 48.6383 55.139 48.6743 55.1366 48.7102V51.2512L57.7792 48.542C57.8055 48.514 57.8372 48.4915 57.8722 48.4757C57.9073 48.4599 57.9452 48.4512 57.9836 48.45C58.0506 48.4525 58.1141 48.4807 58.161 48.5286C58.2078 48.5766 58.2344 48.6407 58.2353 48.7078C58.2344 48.7429 58.2263 48.7774 58.2116 48.8092C58.1968 48.8411 58.1756 48.8696 58.1494 48.8929L56.5063 50.5191L58.268 52.6971C58.3149 52.7501 58.3408 52.8186 58.3406 52.8895C58.339 52.9593 58.3106 53.0258 58.2613 53.0751C58.2119 53.1245 58.1454 53.1529 58.0756 53.1544C58.0329 53.154 57.9911 53.1426 57.954 53.1215C57.9169 53.1003 57.8859 53.07 57.8639 53.0335L56.1348 50.8809L55.1354 51.8816V52.8883C55.1378 52.9242 55.1328 52.9602 55.1208 52.9941C55.1087 53.028 55.0898 53.059 55.0653 53.0853C55.0407 53.1116 55.011 53.1326 54.978 53.1469C54.945 53.1612 54.9094 53.1686 54.8734 53.1686C54.8374 53.1686 54.8018 53.1612 54.7688 53.1469C54.7358 53.1326 54.7061 53.1116 54.6815 53.0853C54.657 53.059 54.6381 53.028 54.626 52.9941C54.614 52.9602 54.609 52.9242 54.6114 52.8883L54.6127 48.7102Z" fill="#182958"/>
<path d="M59.3411 48.7174C59.3423 48.6491 59.37 48.584 59.4183 48.5357C59.4666 48.4874 59.5317 48.4597 59.6 48.4585H59.6593C59.7081 48.4595 59.7558 48.4728 59.7981 48.4971C59.8404 48.5214 59.8759 48.556 59.9013 48.5976L61.5565 51.0878L63.2118 48.5976C63.2366 48.5554 63.2719 48.5204 63.3143 48.496C63.3568 48.4716 63.4048 48.4587 63.4538 48.4585H63.5239C63.5922 48.4597 63.6574 48.4874 63.7057 48.5357C63.754 48.584 63.7816 48.6491 63.7829 48.7174V52.8834C63.7829 52.9526 63.7558 53.0191 63.7074 53.0687C63.659 53.1182 63.5932 53.1468 63.5239 53.1484C63.4542 53.1468 63.3876 53.1184 63.3383 53.0691C63.2889 53.0197 63.2605 52.9532 63.259 52.8834V49.4265L61.7755 51.6044C61.754 51.6437 61.7226 51.6767 61.6844 51.7C61.6462 51.7234 61.6025 51.7363 61.5577 51.7375C61.5118 51.7365 61.4669 51.7237 61.4273 51.7004C61.3877 51.6771 61.3547 51.6441 61.3315 51.6044L59.8553 49.4325V52.8894C59.8553 52.9572 59.8284 53.0221 59.7805 53.07C59.7326 53.1179 59.6677 53.1448 59.6 53.1448C59.5323 53.1448 59.4674 53.1179 59.4195 53.07C59.3716 53.0221 59.3447 52.9572 59.3447 52.8894L59.3411 48.7174Z" fill="#182958"/>
<path d="M67.1238 48.7102C67.1238 48.6409 67.1513 48.5744 67.2003 48.5254C67.2493 48.4764 67.3158 48.4489 67.3851 48.4489C67.4544 48.4489 67.5209 48.4764 67.5699 48.5254C67.6189 48.5744 67.6464 48.6409 67.6464 48.7102V52.8834C67.6464 52.9527 67.6189 53.0192 67.5699 53.0682C67.5209 53.1172 67.4544 53.1448 67.3851 53.1448C67.3158 53.1448 67.2493 53.1172 67.2003 53.0682C67.1513 53.0192 67.1238 52.9527 67.1238 52.8834V48.7102Z" fill="#182958"/>
<path d="M68.9182 49.9165C68.9179 49.849 68.9441 49.7841 68.9911 49.7356C69.0382 49.6872 69.1024 49.6592 69.1699 49.6576C69.204 49.6571 69.2378 49.6635 69.2694 49.6763C69.301 49.6892 69.3296 49.7083 69.3537 49.7324C69.3777 49.7566 69.3967 49.7853 69.4094 49.817C69.4221 49.8486 69.4283 49.8825 69.4276 49.9165V50.2868C69.543 50.0786 69.7134 49.906 69.9202 49.7881C70.1269 49.6701 70.3621 49.6111 70.6001 49.6177C71.4277 49.6177 71.9117 50.1743 71.9117 50.9886V52.8895C71.9141 52.9244 71.9093 52.9595 71.8976 52.9924C71.8859 53.0254 71.8675 53.0557 71.8436 53.0813C71.8198 53.1068 71.7909 53.1273 71.7588 53.1412C71.7267 53.1552 71.692 53.1624 71.657 53.1624C71.622 53.1624 71.5874 53.1552 71.5553 53.1412C71.5232 53.1273 71.4943 53.1068 71.4704 53.0813C71.4465 53.0557 71.4281 53.0254 71.4164 52.9924C71.4047 52.9595 71.3999 52.9244 71.4023 52.8895V51.1144C71.4023 50.4792 71.0575 50.0811 70.4549 50.0811C69.8523 50.0811 69.4276 50.5119 69.4276 51.1544V52.8895C69.4291 52.9232 69.4237 52.9568 69.4118 52.9883C69.3998 53.0199 69.3816 53.0486 69.3581 53.0728C69.3347 53.0971 69.3065 53.1163 69.2754 53.1293C69.2443 53.1423 69.2109 53.1488 69.1772 53.1484C69.143 53.1489 69.1091 53.1425 69.0775 53.1297C69.0459 53.1169 69.0171 53.0978 68.993 53.0737C68.9688 53.0495 68.9498 53.0208 68.937 52.9891C68.9241 52.9575 68.9178 52.9236 68.9182 52.8895V49.9165Z" fill="#182958"/>
<path d="M76.2567 52.8894C76.2567 52.9571 76.2298 53.0221 76.1819 53.07C76.134 53.1178 76.0691 53.1447 76.0014 53.1447C75.9337 53.1447 75.8688 53.1178 75.8209 53.07C75.773 53.0221 75.7461 52.9571 75.7461 52.8894V52.426C75.4678 52.8362 75.0637 53.1871 74.4345 53.1871C73.6141 53.1871 72.7998 52.5385 72.7998 51.4132V51.3999C72.7998 50.2807 73.6141 49.6176 74.4345 49.6176C75.0709 49.6176 75.4811 49.9625 75.7461 50.3436V48.5057C75.7448 48.4719 75.7503 48.4383 75.7624 48.4067C75.7745 48.3752 75.7929 48.3465 75.8164 48.3222C75.84 48.298 75.8682 48.2788 75.8993 48.2659C75.9305 48.2529 75.964 48.2464 75.9978 48.2467C76.0319 48.2462 76.0658 48.2526 76.0974 48.2654C76.1291 48.2783 76.1578 48.2973 76.182 48.3215C76.2061 48.3456 76.2251 48.3744 76.238 48.406C76.2508 48.4376 76.2572 48.4715 76.2567 48.5057V52.8894ZM73.3249 51.3927V51.406C73.3249 52.2143 73.8876 52.7309 74.5349 52.7309C75.1822 52.7309 75.7739 52.1937 75.7739 51.406V51.3927C75.7799 51.2246 75.7525 51.057 75.6933 50.8996C75.6341 50.7422 75.5444 50.598 75.4292 50.4755C75.314 50.353 75.1756 50.2545 75.0221 50.1858C74.8686 50.117 74.703 50.0794 74.5349 50.075C73.8658 50.075 73.3249 50.5651 73.3249 51.3927Z" fill="#182958"/>
<path d="M77.1835 51.4242V51.4109C77.1817 50.9376 77.368 50.4829 77.7015 50.147C78.0349 49.811 78.4882 49.6213 78.9615 49.6195C79.4349 49.6178 79.8895 49.8041 80.2255 50.1375C80.5614 50.471 80.7511 50.9243 80.7529 51.3976V51.4109C80.7544 51.6467 80.7089 51.8804 80.6192 52.0984C80.5294 52.3164 80.3972 52.5144 80.2302 52.6809C80.0632 52.8473 79.8648 52.9788 79.6464 53.0678C79.4281 53.1568 79.1943 53.2015 78.9585 53.1993C78.7246 53.202 78.4926 53.158 78.276 53.0698C78.0594 52.9815 77.8626 52.8509 77.6972 52.6855C77.5318 52.5201 77.4012 52.3233 77.313 52.1067C77.2247 51.8901 77.1807 51.6581 77.1835 51.4242ZM80.2302 51.4242V51.4109C80.2302 50.6764 79.6797 50.0739 78.9585 50.0739C78.2168 50.0739 77.7062 50.6789 77.7062 51.3976V51.4109C77.7062 52.1466 78.2495 52.7419 78.9718 52.7419C79.7135 52.737 80.2302 52.1417 80.2302 51.4242Z" fill="#182958"/>
<path d="M81.6739 49.9166C81.6735 49.849 81.6997 49.7841 81.7468 49.7357C81.7938 49.6872 81.858 49.6592 81.9255 49.6576C81.9597 49.6571 81.9936 49.6635 82.0252 49.6764C82.0568 49.6892 82.0856 49.7082 82.1097 49.7324C82.1339 49.7565 82.1529 49.7853 82.1657 49.8169C82.1786 49.8485 82.1849 49.8824 82.1845 49.9166V50.2868C82.2994 50.0785 82.4696 49.9059 82.6762 49.7879C82.8828 49.6698 83.1179 49.611 83.3557 49.6177C84.1833 49.6177 84.6673 50.1743 84.6673 50.9886V52.8895C84.6697 52.9244 84.6649 52.9595 84.6532 52.9925C84.6415 53.0254 84.6231 53.0557 84.5993 53.0813C84.5754 53.1069 84.5465 53.1273 84.5144 53.1412C84.4823 53.1552 84.4476 53.1624 84.4126 53.1624C84.3776 53.1624 84.343 53.1552 84.3109 53.1412C84.2788 53.1273 84.2499 53.1069 84.226 53.0813C84.2021 53.0557 84.1837 53.0254 84.172 52.9925C84.1603 52.9595 84.1555 52.9244 84.1579 52.8895V51.1145C84.1579 50.4792 83.8131 50.0811 83.2105 50.0811C82.608 50.0811 82.1845 50.5119 82.1845 51.1544V52.8895C82.1858 52.9232 82.1802 52.9569 82.1681 52.9884C82.156 53.02 82.1377 53.0487 82.1141 53.0729C82.0906 53.0971 82.0624 53.1163 82.0312 53.1293C82 53.1423 81.9666 53.1488 81.9328 53.1484C81.8987 53.1489 81.8648 53.1426 81.8331 53.1297C81.8015 53.1169 81.7727 53.0978 81.7486 53.0737C81.7245 53.0495 81.7054 53.0208 81.6926 52.9892C81.6797 52.9575 81.6734 52.9236 81.6739 52.8895V49.9166Z" fill="#182958"/>
<path d="M87.2505 53.1944C86.3103 53.1944 85.542 52.4684 85.542 51.4133V51.4C85.542 50.4126 86.2365 49.6177 87.1839 49.6177C88.1967 49.6177 88.7739 50.4453 88.7739 51.3528C88.7739 51.417 88.7484 51.4785 88.703 51.5239C88.6576 51.5693 88.596 51.5948 88.5319 51.5948H86.0587C86.1313 52.3365 86.654 52.7539 87.2686 52.7539C87.6367 52.7563 87.991 52.6138 88.2548 52.3571C88.2978 52.3184 88.3544 52.2984 88.4121 52.3015C88.4699 52.3045 88.524 52.3304 88.5627 52.3734C88.6014 52.4164 88.6214 52.473 88.6183 52.5308C88.6153 52.5885 88.5894 52.6427 88.5464 52.6814C88.3773 52.8514 88.175 52.9848 87.952 53.0731C87.729 53.1614 87.4902 53.2027 87.2505 53.1944ZM88.2632 51.2136C88.21 50.5917 87.8531 50.0484 87.1743 50.0484C86.579 50.0484 86.1276 50.5457 86.0623 51.2136H88.2632Z" fill="#182958"/>
<path d="M89.4889 52.7552C89.4601 52.7337 89.4366 52.7058 89.4204 52.6736C89.4042 52.6415 89.3958 52.606 89.3958 52.57C89.3961 52.5408 89.4021 52.512 89.4136 52.4852C89.4251 52.4584 89.4418 52.4341 89.4627 52.4137C89.4837 52.3934 89.5084 52.3774 89.5355 52.3666C89.5626 52.3558 89.5916 52.3505 89.6208 52.351C89.6644 52.3508 89.7069 52.3649 89.7418 52.3909C90.0594 52.6199 90.4393 52.7466 90.8308 52.7539C91.241 52.7539 91.5398 52.5422 91.5398 52.2107V52.1974C91.5398 51.8537 91.1357 51.7206 90.6856 51.5924C90.1484 51.4399 89.553 51.2548 89.553 50.6244V50.6111C89.553 50.0218 90.0431 49.631 90.7183 49.631C91.0993 49.6397 91.4728 49.7397 91.8072 49.9226C91.8444 49.944 91.8751 49.9749 91.8964 50.0121C91.9176 50.0493 91.9286 50.0915 91.9282 50.1343C91.9279 50.1635 91.9218 50.1923 91.9103 50.2192C91.8989 50.246 91.8822 50.2703 91.8613 50.2906C91.8403 50.311 91.8156 50.327 91.7885 50.3378C91.7614 50.3485 91.7324 50.3538 91.7032 50.3533C91.6641 50.3531 91.6257 50.344 91.5907 50.3267C91.3201 50.1635 91.0123 50.0723 90.6965 50.0617C90.2923 50.0617 90.0346 50.2735 90.0346 50.559V50.5711C90.0346 50.8966 90.4581 51.0225 90.9155 51.1616C91.4442 51.3201 92.0142 51.5246 92.0142 52.1417V52.1502C92.0142 52.7987 91.4781 53.1762 90.7957 53.1762C90.3281 53.1681 89.8733 53.0215 89.4889 52.7552Z" fill="#182958"/>
<path d="M92.9727 48.6182C92.9727 48.5379 93.0045 48.461 93.0613 48.4043C93.118 48.3475 93.1949 48.3157 93.2752 48.3157C93.3554 48.3157 93.4323 48.3475 93.4891 48.4043C93.5458 48.461 93.5777 48.5379 93.5777 48.6182V48.7041C93.5777 48.7843 93.5458 48.8612 93.4891 48.918C93.4323 48.9747 93.3554 49.0066 93.2752 49.0066C93.1949 49.0066 93.118 48.9747 93.0613 48.918C93.0045 48.8612 92.9727 48.7843 92.9727 48.7041V48.6182ZM93.0186 49.9165C93.0183 49.849 93.0445 49.784 93.0915 49.7356C93.1386 49.6871 93.2028 49.6591 93.2703 49.6575C93.3045 49.6571 93.3383 49.6634 93.37 49.6763C93.4016 49.6891 93.4304 49.7082 93.4545 49.7323C93.4786 49.7564 93.4977 49.7852 93.5105 49.8168C93.5234 49.8485 93.5297 49.8823 93.5292 49.9165V52.8894C93.5306 52.9231 93.525 52.9568 93.5129 52.9883C93.5008 53.0199 93.4825 53.0486 93.4589 53.0728C93.4354 53.097 93.4072 53.1162 93.376 53.1292C93.3448 53.1422 93.3113 53.1487 93.2776 53.1483C93.2434 53.1488 93.2095 53.1425 93.1779 53.1296C93.1463 53.1168 93.1175 53.0977 93.0934 53.0736C93.0692 53.0494 93.0502 53.0207 93.0374 52.9891C93.0245 52.9574 93.0181 52.9235 93.0186 52.8894V49.9165Z" fill="#182958"/>
<path d="M94.4561 52.1211V52.1078C94.4561 51.3818 95.0526 51.0019 95.9201 51.0019C96.2763 50.9983 96.6311 51.0477 96.9728 51.1483V51.0273C96.9728 50.4114 96.5953 50.0932 95.9528 50.0932C95.6468 50.093 95.3443 50.1586 95.0659 50.2856C95.0363 50.298 95.0048 50.305 94.9727 50.3061C94.9142 50.3059 94.858 50.2829 94.816 50.242C94.774 50.2012 94.7495 50.1457 94.7477 50.0871C94.7479 50.0422 94.7611 49.9982 94.7858 49.9606C94.8105 49.923 94.8456 49.8934 94.8868 49.8754C95.2389 49.7185 95.6206 49.6393 96.006 49.6431C96.49 49.6431 96.8603 49.7641 97.112 50.0206C97.3431 50.2529 97.4629 50.5832 97.4629 51.0212V52.8955C97.4642 52.9281 97.4589 52.9606 97.4473 52.9911C97.4357 53.0216 97.4181 53.0494 97.3955 53.0729C97.3729 53.0964 97.3458 53.1151 97.3158 53.1279C97.2858 53.1406 97.2535 53.1472 97.2209 53.1472C97.1888 53.1482 97.1569 53.1426 97.1271 53.1308C97.0973 53.119 97.0702 53.1012 97.0475 53.0785C97.0248 53.0559 97.007 53.0288 96.9952 52.999C96.9834 52.9691 96.9779 52.9372 96.9789 52.9052V52.5978C96.8342 52.7876 96.6462 52.94 96.4307 53.0425C96.2152 53.145 95.9784 53.1946 95.7399 53.1871C95.1046 53.1871 94.4561 52.8229 94.4561 52.1211ZM96.9789 51.8561V51.5258C96.6521 51.4287 96.313 51.3794 95.9722 51.3794C95.3297 51.3794 94.9727 51.6577 94.9727 52.0884V52.1018C94.9727 52.5325 95.3696 52.7842 95.833 52.7842C96.4622 52.7842 96.9789 52.3994 96.9789 51.8561Z" fill="#182958"/>
<path d="M87.9342 12.2547C87.3537 12.2547 86.7969 12.024 86.3864 11.6136C85.976 11.2031 85.7453 10.6463 85.7453 10.0658C85.7453 8.55754 85.1462 7.11105 84.0797 6.04455C83.0132 4.97805 81.5667 4.3789 80.0584 4.3789C78.5502 4.3789 77.1037 4.97805 76.0372 6.04455C74.9707 7.11105 74.3715 8.55754 74.3715 10.0658C74.3784 10.3575 74.3268 10.6476 74.2199 10.9191C74.1131 11.1906 73.953 11.438 73.7491 11.6467C73.5452 11.8554 73.3017 12.0213 73.0328 12.1345C72.7639 12.2478 72.475 12.3061 72.1832 12.3061C71.8915 12.3061 71.6026 12.2478 71.3337 12.1345C71.0648 12.0213 70.8213 11.8554 70.6174 11.6467C70.4135 11.438 70.2534 11.1906 70.1465 10.9191C70.0397 10.6476 69.9881 10.3575 69.995 10.0658C70.0241 7.41514 71.0974 4.8829 72.9821 3.01878C74.8668 1.15467 77.4106 0.109131 80.0614 0.109131C82.7123 0.109131 85.2561 1.15467 87.1408 3.01878C89.0255 4.8829 90.0988 7.41514 90.1279 10.0658C90.1279 10.3537 90.0711 10.6387 89.9608 10.9046C89.8505 11.1704 89.6889 11.412 89.4851 11.6153C89.2813 11.8186 89.0395 11.9797 88.7733 12.0894C88.5072 12.1991 88.2221 12.2553 87.9342 12.2547Z" fill="#182958"/>
<path d="M64.2996 10.9733V42.486H95.8123V10.9733L80.0559 26.7296L64.2996 10.9733Z" fill="#009EA9"/>
<path d="M95.8124 44.6737H64.2997C64.0124 44.6738 63.7278 44.6174 63.4623 44.5075C63.1968 44.3976 62.9556 44.2365 62.7524 44.0333C62.5493 43.8301 62.3881 43.5889 62.2783 43.3234C62.1684 43.0579 62.1119 42.7734 62.1121 42.486V10.9733C62.1118 10.5404 62.24 10.1172 62.4803 9.75719C62.7207 9.39719 63.0624 9.11659 63.4623 8.9509C63.8622 8.78521 64.3023 8.74189 64.7269 8.82641C65.1514 8.91093 65.5413 9.1195 65.8473 9.42572L80.0561 23.6345L94.2649 9.42572C94.5708 9.1195 94.9608 8.91093 95.3853 8.82641C95.8098 8.74189 96.2499 8.78521 96.6498 8.9509C97.0497 9.11659 97.3915 9.39719 97.6318 9.75719C97.8722 10.1172 98.0004 10.5404 98.0001 10.9733V42.486C98.0001 43.0662 97.7696 43.6227 97.3593 44.0329C96.9491 44.4432 96.3926 44.6737 95.8124 44.6737ZM66.4873 40.2923H93.6236V16.2561L81.6036 28.2772C81.4005 28.4806 81.1592 28.6419 80.8937 28.7519C80.6281 28.862 80.3435 28.9186 80.0561 28.9186C79.7686 28.9186 79.484 28.862 79.2185 28.7519C78.9529 28.6419 78.7117 28.4806 78.5085 28.2772L66.4873 16.2561V40.2923Z" fill="#182958"/>
<path d="M4.75348e-05 35.5819V25.965C-0.0018832 25.6689 0.0550201 25.3755 0.167453 25.1016C0.279886 24.8278 0.445607 24.579 0.654993 24.3697C0.864379 24.1604 1.11326 23.9949 1.38717 23.8826C1.66109 23.7703 1.95458 23.7135 2.25061 23.7156C2.54695 23.7134 2.84077 23.7701 3.11499 23.8824C3.38921 23.9948 3.63834 24.1606 3.84788 24.3701C4.05743 24.5797 4.22321 24.8288 4.33557 25.103C4.44794 25.3772 4.50464 25.6711 4.50239 25.9674V35.4682C4.50239 38.8005 6.16853 40.5247 8.9164 40.5247C11.6643 40.5247 13.3304 38.8585 13.3304 35.6134V25.965C13.3235 25.665 13.3765 25.3666 13.4865 25.0874C13.5966 24.8082 13.7613 24.5538 13.971 24.3391C14.1807 24.1245 14.4312 23.9539 14.7078 23.8374C14.9844 23.721 15.2815 23.661 15.5816 23.661C15.8817 23.661 16.1788 23.721 16.4553 23.8374C16.7319 23.9539 16.9824 24.1245 17.1922 24.3391C17.4019 24.5538 17.5666 24.8082 17.6766 25.0874C17.7866 25.3666 17.8397 25.665 17.8328 25.965V35.4367C17.8328 41.6342 14.3541 44.6737 8.85711 44.6737C3.36016 44.6737 4.75348e-05 41.604 4.75348e-05 35.5819Z" fill="#182958"/>
<path d="M42.7825 26.1005C42.7825 25.5037 43.0196 24.9312 43.4417 24.5092C43.8638 24.0871 44.4362 23.85 45.0331 23.85C45.63 23.85 46.2024 24.0871 46.6245 24.5092C47.0466 24.9312 47.2837 25.5037 47.2837 26.1005L47.2752 32.9708L55.5878 24.7429C56.1444 24.1888 56.6997 23.8681 57.4886 23.8693C58.7458 23.8693 59.5638 24.8373 59.5625 25.9469C59.5625 26.6487 59.2395 27.1738 58.741 27.6408L52.9754 33.0132L59.2516 40.9143C59.6013 41.3523 59.8638 41.8206 59.8626 42.4933C59.8626 43.7505 58.8946 44.6846 57.5806 44.6834C56.7034 44.6834 56.177 44.243 55.6809 43.5944L49.844 35.9365L47.2691 38.3298L47.2631 42.4232C47.2627 42.7187 47.2041 43.0113 47.0906 43.2842C46.9772 43.5571 46.811 43.805 46.6018 44.0137C46.3925 44.2224 46.1442 44.3878 45.871 44.5005C45.5978 44.6133 45.3051 44.6711 45.0095 44.6707C44.714 44.6703 44.4214 44.6117 44.1485 44.4982C43.8756 44.3848 43.6277 44.2187 43.419 44.0094C43.2103 43.8001 43.0449 43.5518 42.9321 43.2786C42.8194 43.0054 42.7616 42.7127 42.762 42.4171L42.7825 26.1005Z" fill="#182958"/>
<path d="M20.0711 26.1694C20.0687 25.8732 20.1253 25.5795 20.2375 25.3053C20.3498 25.0312 20.5154 24.7821 20.7249 24.5727C20.9344 24.3632 21.1834 24.1975 21.4576 24.0853C21.7317 23.973 22.0255 23.9165 22.3217 23.9189H22.819C23.2335 23.9123 23.6422 24.0173 24.0022 24.2229C24.3622 24.4286 24.6602 24.7273 24.8651 25.0877L30.3027 33.9448L35.7682 25.0587C36.2365 24.2988 36.879 23.9189 37.7853 23.9189H38.2826C38.5788 23.9165 38.8725 23.973 39.1467 24.0853C39.4208 24.1975 39.6699 24.3632 39.8793 24.5727C40.0888 24.7821 40.2545 25.0312 40.3667 25.3053C40.479 25.5795 40.5356 25.8732 40.5331 26.1694V42.4231C40.5331 43.0168 40.2973 43.5861 39.8775 44.0059C39.4577 44.4257 38.8883 44.6616 38.2947 44.6616C37.701 44.6616 37.1316 44.4257 36.7118 44.0059C36.292 43.5861 36.0562 43.0168 36.0562 42.4231V32.2206L32.1092 38.3007C31.6422 39.0025 31.0578 39.4405 30.2386 39.4405C29.4194 39.4405 28.835 39.0025 28.368 38.3007L24.4851 32.3065V42.48C24.4848 42.7703 24.427 43.0577 24.3149 43.3256C24.2028 43.5934 24.0387 43.8363 23.8321 44.0403C23.6255 44.2444 23.3805 44.4054 23.1113 44.5141C22.842 44.6228 22.5539 44.677 22.2636 44.6737C21.975 44.6764 21.6887 44.6216 21.4215 44.5124C21.1543 44.4031 20.9116 44.2417 20.7076 44.0376C20.5035 43.8334 20.3423 43.5906 20.2332 43.3234C20.1241 43.0561 20.0694 42.7698 20.0723 42.4812L20.0711 26.1694Z" fill="#182958"/>
<path d="M27.3167 12.0647C27.3154 11.9154 27.3438 11.7673 27.4003 11.6291C27.4569 11.4909 27.5403 11.3653 27.6458 11.2597C27.7513 11.1541 27.8768 11.0705 28.015 11.0138C28.1531 10.9572 28.3011 10.9286 28.4504 10.9297H31.5286C33.9873 10.9297 35.4744 12.3817 35.4744 14.4943V14.5197C35.4744 16.9058 33.6195 18.1424 31.3072 18.1424H29.5842V20.1897C29.5842 20.4904 29.4647 20.7788 29.2521 20.9914C29.0395 21.204 28.7511 21.3235 28.4504 21.3235C28.1498 21.3235 27.8614 21.204 27.6488 20.9914C27.4361 20.7788 27.3167 20.4904 27.3167 20.1897V12.0647ZM31.381 16.129C32.5148 16.129 33.1778 15.4514 33.1778 14.5681V14.5379C33.1778 13.5215 32.4712 12.977 31.3362 12.977H29.5842V16.129H31.381Z" fill="#009EA9"/>
<path d="M37.0557 18.912V18.883C37.0557 17.16 38.3661 16.3638 40.2367 16.3638C40.894 16.3582 41.5472 16.468 42.1666 16.6881V16.5562C42.1666 15.6281 41.5919 15.1127 40.4726 15.1127C39.949 15.1072 39.4276 15.1814 38.9263 15.3329C38.8225 15.3716 38.7128 15.3917 38.602 15.3922C38.4808 15.3943 38.3604 15.3722 38.2478 15.3272C38.1352 15.2822 38.0327 15.2152 37.9463 15.1302C37.8599 15.0451 37.7913 14.9437 37.7445 14.8318C37.6978 14.72 37.6738 14.5999 37.674 14.4786C37.6744 14.2895 37.7325 14.1049 37.8406 13.9497C37.9488 13.7944 38.1017 13.6759 38.279 13.6099C38.9868 13.3449 39.7527 13.1985 40.7981 13.1985C42.0202 13.1985 42.9035 13.5216 43.4601 14.0818C44.0481 14.671 44.3131 15.5398 44.3131 16.5997V20.1934C44.3133 20.3358 44.2852 20.4768 44.2303 20.6081C44.1755 20.7395 44.095 20.8587 43.9937 20.9587C43.8923 21.0587 43.7721 21.1375 43.64 21.1906C43.5079 21.2437 43.3665 21.2699 43.2241 21.2679C42.5756 21.2679 42.1485 20.8117 42.1485 20.3398V20.3277C41.604 20.9327 40.8526 21.3296 39.7636 21.3296C38.2777 21.3271 37.0557 20.4729 37.0557 18.912ZM42.1957 18.3917V17.9936C41.7455 17.7956 41.2584 17.6954 40.7667 17.6996C39.8096 17.6996 39.2203 18.082 39.2203 18.7886V18.8176C39.2203 19.4226 39.7213 19.7747 40.4436 19.7747C41.489 19.7808 42.1957 19.206 42.1957 18.3917Z" fill="#009EA9"/>
<path d="M45.897 12.1531C45.8957 12.0038 45.9242 11.8557 45.9807 11.7175C46.0372 11.5793 46.1206 11.4537 46.2261 11.3481C46.3317 11.2424 46.4571 11.1589 46.5953 11.1022C46.7334 11.0456 46.8815 11.017 47.0308 11.0181H49.9178C53.1569 11.0181 55.3954 13.242 55.3954 16.1436V16.1726C55.3954 19.0766 53.1569 21.3271 49.9178 21.3271H47.0308C46.8816 21.3283 46.7336 21.2997 46.5956 21.2431C46.4575 21.1866 46.3321 21.1031 46.2266 20.9976C46.1211 20.8921 46.0376 20.7666 45.981 20.6286C45.9244 20.4905 45.8959 20.3426 45.897 20.1934V12.1531ZM49.9178 19.2799C51.7727 19.2799 53.025 18.0287 53.025 16.2017V16.1726C53.025 14.3468 51.7727 13.0654 49.9178 13.0654H48.1657V19.2799H49.9178Z" fill="#009EA9"/>
<path d="M56.9768 11.4609C56.9768 10.8124 57.5213 10.4143 58.2291 10.4143C58.937 10.4143 59.4802 10.8124 59.4802 11.4609V11.4948C59.4802 12.1422 58.9358 12.5548 58.2291 12.5548C57.5225 12.5548 56.9768 12.1422 56.9768 11.4948V11.4609ZM57.1099 14.3758C57.1099 14.0789 57.2278 13.7943 57.4377 13.5844C57.6476 13.3745 57.9323 13.2566 58.2291 13.2566C58.526 13.2566 58.8106 13.3745 59.0205 13.5844C59.2304 13.7943 59.3484 14.0789 59.3484 14.3758V20.2067C59.3484 20.5035 59.2304 20.7882 59.0205 20.9981C58.8106 21.208 58.526 21.3259 58.2291 21.3259C57.9323 21.3259 57.6476 21.208 57.4377 20.9981C57.2278 20.7882 57.1099 20.5035 57.1099 20.2067V14.3758Z" fill="#009EA9"/>
</g>
<defs>
<clipPath id="clip0_1_3631">
<rect width="98" height="54.1878" fill="white"/>
</clipPath>
</defs>
</svg>
