<svg width="16" height="18" viewBox="0 0 16 18" fill="none" xmlns="http://www.w3.org/2000/svg">
<path d="M7.84654 10.8118C6.06412 10.8118 4.60805 9.36406 4.60805 7.57327C4.60805 5.78248 6.06412 4.34316 7.84654 4.34316C9.62896 4.34316 11.085 5.79085 11.085 7.58164C11.085 9.37243 9.62896 10.8118 7.84654 10.8118ZM7.84654 5.59838C6.75868 5.59838 5.86328 6.48541 5.86328 7.58164C5.86328 8.67787 6.75031 9.5649 7.84654 9.5649C8.94277 9.5649 9.8298 8.67787 9.8298 7.58164C9.8298 6.48541 8.9344 5.59838 7.84654 5.59838Z" fill="#8C9197"/>
<path d="M7.84654 18C6.60805 18 5.36119 17.5313 4.39048 16.6025C1.92187 14.2259 -0.806156 10.4351 0.22313 5.92467C1.152 1.83263 4.72521 0 7.84654 0C7.84654 0 7.84654 0 7.85491 0C10.9762 0 14.5495 1.83263 15.4783 5.93304C16.4992 10.4435 13.7712 14.2259 11.3026 16.6025C10.3319 17.5313 9.08503 18 7.84654 18ZM7.84654 1.25523C5.4114 1.25523 2.2817 2.55229 1.45325 6.20082C0.549489 10.1422 3.02647 13.5397 5.26914 15.6903C6.71684 17.0878 8.98461 17.0878 10.4323 15.6903C12.6666 13.5397 15.1436 10.1422 14.2566 6.20082C13.4197 2.55229 10.2817 1.25523 7.84654 1.25523Z" fill="#8C9197"/>
</svg>
