<svg width="52" height="40" viewBox="0 0 52 40" fill="none" xmlns="http://www.w3.org/2000/svg">
<g clip-path="url(#clip0_0_112)">
<path d="M5.47515 39.2187C4.63859 38.7889 3.98014 38.4124 4.01053 38.3815C4.11774 38.2766 8.11906 37.4336 10.9132 36.928C16.96 35.8343 24.1488 34.9589 31.3098 34.4449C34.2585 34.2325 44.927 34.2259 46.7774 34.4341L47.9904 34.5715L46.6229 34.5924C44.1959 34.6298 38.6287 35.0138 34.2669 35.4453C26.0102 36.2625 16.8316 37.7685 10.1915 39.3961C8.83575 39.7285 7.56192 40 7.36101 40C7.1601 40 6.31087 39.6485 5.47515 39.2187ZM17.0182 31.0189C16.8941 30.6807 17.4133 30.5291 17.6395 30.4333C18.6559 30.0027 19.3709 29.3022 19.6106 28.5017C19.7246 28.1185 20.0741 25.9528 20.3856 23.6896C20.6979 21.4265 20.9773 19.6764 21.0085 19.5731C21.0313 19.4973 21.0921 19.2274 21.4213 19.1983C22.2613 19.1899 22.8851 19.2008 23.7453 19.2008C24.2206 19.1558 24.1277 19.6689 24.0906 19.9979C24.0526 20.4136 23.9395 21.2157 23.8078 22.1936C23.6465 23.3873 23.406 25.1707 23.2726 26.1569C22.9738 28.3743 22.8083 29.0573 22.2908 30.1993C21.6763 31.5579 20.7359 32.3475 19.0307 32.9098C18.6863 33.0164 17.6994 33.3471 17.5914 33.053C17.3685 32.3475 17.2107 31.7353 17.0182 31.0189ZM36.5951 30.2751C35.4597 29.8228 35.5129 28.0752 36.7049 27.358C37.4587 26.9041 38.519 26.9815 39.0635 27.5188C40.4048 28.8424 38.432 31.0064 36.5951 30.2751ZM28.0083 29.2314C24.668 28.6683 24.6908 24.7383 25.4387 22.4927C26.3757 19.8938 28.6592 19.1383 30.5357 19.0725C32.1194 19.0192 34.3151 19.3099 34.8663 19.6456C35.0191 19.7389 34.9473 20.6393 34.5219 23.9803C34.2264 26.2993 33.9039 28.2935 33.8043 28.4117C33.2759 29.0406 29.7321 29.5412 28.0083 29.2314ZM30.9224 26.1211C31.2811 24.805 31.4322 23.6163 31.6889 22.2278C31.6568 21.7488 30.838 21.7455 30.6294 21.7446C29.5455 21.7446 28.9048 22.3452 28.5655 23.6805C28.0995 25.5122 28.5857 26.5334 29.9237 26.5334C30.3475 26.4942 30.789 26.5176 30.9224 26.1211ZM6.51009 28.171C7.42347 25.9695 11.0905 18.0896 11.971 16.457C12.1373 16.0505 12.5754 15.9697 12.8751 15.9414C13.7378 15.9022 14.4832 15.913 15.2412 15.9189C16.0212 15.9255 16.0331 16.1954 16.1335 16.7677C16.2559 17.3382 17.7788 26.3085 18.1232 28.4625C18.1671 28.8199 18.2557 28.9307 17.7847 28.9315C17.1305 28.9332 15.5578 29.0173 15.0235 28.9782C14.8529 28.9557 14.7415 28.8457 14.7153 28.7216C14.6664 28.49 14.6115 28.0935 14.5744 27.6804L14.4773 26.6075H12.5171H10.5578L10.1299 27.6396C9.97706 28.0061 9.81076 28.3684 9.68667 28.6083C9.59972 28.8282 9.47056 28.9298 9.27641 28.9715C8.79692 28.9673 7.09678 29.0298 6.45775 28.974C6.14119 28.8307 6.42736 28.3709 6.51009 28.171ZM14.1312 23.6205C14.0763 23.0416 13.7015 20.0521 13.6129 19.6106C13.5901 19.5631 13.5791 19.5789 13.5555 19.6064C13.3233 19.9496 12.0714 22.9833 11.8578 23.688C11.8325 23.7854 11.8958 23.8204 11.9895 23.8129C12.3069 23.7913 13.6061 23.7671 14.0003 23.7521C14.1134 23.7438 14.1244 23.7046 14.1312 23.6205ZM36.7462 25.074C36.7969 24.6834 36.9075 23.623 36.9927 22.7176C37.078 21.8121 37.2139 20.3977 37.2949 19.5748C37.3574 18.9509 37.4114 18.3445 37.4351 18.0254C37.4823 17.7389 37.8327 17.7056 38.0631 17.7031C38.8305 17.7114 39.5531 17.6664 40.2436 17.7297C40.5694 17.7622 40.7062 17.833 40.7079 18.0246C40.3964 19.6006 39.2779 25.0365 39.1918 25.3731C39.1175 25.6638 39.0871 25.7487 38.638 25.7746C38.0884 25.7654 37.6292 25.7937 37.0712 25.7912C36.7513 25.7871 36.6652 25.6946 36.7462 25.074ZM21.2584 16.9976C21.2584 16.0371 21.8848 15.3058 22.669 14.9976C23.346 14.7635 24.1058 14.7644 24.5101 15.22C25.2277 16.043 24.7566 17.2591 23.9184 17.893C22.8446 18.6218 21.2753 18.1912 21.2584 16.9976ZM40.5002 14.9734C40.2655 14.4595 39.5125 12.8369 38.8279 11.3675C38.1425 9.899 37.6182 8.60373 37.6621 8.48961C37.7069 8.37633 38.47 7.44007 39.3598 6.40969L40.8066 4.73292C40.9012 4.62047 41.0101 4.4822 41.1409 4.4797C42.0129 4.4847 42.917 4.53551 43.7494 4.52801C44.369 4.52218 44.6813 4.48303 44.2213 4.94367C43.9267 5.30351 43.3467 5.96155 42.6832 6.68374C41.7234 7.72828 40.9392 8.6104 40.9392 8.64455C40.9392 8.6787 41.6584 10.238 42.5372 12.1097C43.2277 13.5799 43.7983 14.8951 43.9908 15.4449C44.0727 15.6315 44.0009 15.7914 43.8254 15.8347C43.5924 15.888 43.1737 15.9089 42.4536 15.9089H41.3748C41.1114 15.9364 40.9181 15.8905 40.8168 15.6681L40.5002 14.9734ZM8.22036 13.8789C7.24958 13.4016 6.79035 12.7977 6.70678 11.8873C6.65698 11.3417 7.56192 4.00658 7.96205 1.67426C8.05997 1.12617 8.10218 1.09535 8.63484 1.09535H9.6816C10.232 1.09535 10.7326 1.08619 11.0475 1.10368C11.478 1.11034 11.3986 1.37772 11.3657 1.69758C11.2923 2.41311 11.0618 3.96243 10.7723 5.95739C10.259 9.49751 10.1282 10.7461 10.2514 10.9385C10.3949 11.1634 10.7596 11.2009 13.1781 11.2367L15.3409 11.2684C15.8566 11.2401 15.963 11.365 15.9124 11.8215C15.7857 12.577 15.7165 13.1792 15.5916 13.8556C15.5055 14.2787 15.2286 14.168 14.7981 14.1938L12.2698 14.2288C9.02653 14.2688 9.00965 14.2671 8.22036 13.8789ZM33.1636 14.1513C33.1307 14.0888 33.221 13.2309 33.3645 12.243C33.508 11.2551 33.8069 9.13433 34.0297 7.5292C34.6612 2.97369 34.8688 1.60096 34.9566 1.07536C35.0495 0.463125 35.0503 0.496444 35.659 0.496444H36.6238C37.0003 0.496444 37.2941 0.492279 37.5212 0.498943C38.3881 0.527264 38.2775 0.453129 38.0589 1.77755C37.9762 2.27816 37.701 4.48053 37.4477 6.33222C36.8087 10.9952 36.3892 13.8548 36.3123 14.0763C36.2406 14.2837 33.2708 14.3537 33.1636 14.1513ZM16.6755 13.7956C17.0781 10.4637 17.4631 7.94402 17.9096 4.84288C17.9434 4.47137 18.3131 4.42889 18.7454 4.42806C19.2367 4.42806 19.7364 4.42139 20.2041 4.43639C21.1107 4.43972 21.3487 4.55967 21.255 5.15774C20.8532 8.06896 20.3569 10.667 19.836 13.6274C19.7381 14.128 19.6199 14.113 19.1345 14.113C18.5689 14.1155 17.5661 14.1338 17.0545 14.1197C16.754 14.068 16.6864 14.0339 16.6755 13.7956ZM23.0742 6.33556C23.3224 5.04695 23.4946 4.84621 23.8559 4.61298C24.3016 4.32477 27.5947 4.02407 28.7318 4.16817C28.8905 4.19066 29.0416 4.21898 29.1851 4.2523C32.5161 5.03279 31.9978 8.7545 31.7817 10.4663C31.553 12.1022 31.3293 13.5915 31.2837 13.7765C31.2043 14.0988 31.1334 14.113 29.6249 14.113C29.1184 14.113 28.8533 14.0963 28.5655 14.0697C28.0995 14.0397 28.0564 13.9364 28.1029 13.6015C28.2725 12.2355 28.5013 11.0568 28.6718 9.78072C28.9014 8.03898 28.8407 6.3189 26.6501 6.68874C26.2744 6.78286 26.1723 6.81285 26.1208 7.18185C25.8473 8.90277 25.6067 10.6803 25.3568 12.3629C25.3019 12.7644 25.2251 13.1842 25.1466 13.5566C25.1264 13.6507 25.1154 13.7357 25.0977 13.7981C25.0757 13.8731 25.0234 13.9497 24.9736 13.8731C24.6224 13.2409 22.9662 13.3467 22.2748 13.8106C21.9287 14.0488 21.8569 14.1763 21.9987 13.4516C22.0232 13.2975 22.0477 13.1442 22.0713 12.991C22.4141 10.7703 22.6454 8.58624 23.0742 6.33556ZM18.3461 2.52222C17.9755 1.27694 19.0771 0.0466404 20.3104 0.00415902C21.9819 -0.106626 22.4436 2.16238 20.7334 3.1911C19.7432 3.6384 18.7023 3.54344 18.3461 2.52222Z" fill="#E9232A"/>
</g>
<defs>
<clipPath id="clip0_0_112">
<rect width="44" height="40" fill="white" transform="translate(4)"/>
</clipPath>
</defs>
</svg>
