<svg width="14" height="14" viewBox="0 0 14 14" fill="none" xmlns="http://www.w3.org/2000/svg">
<path opacity="0.4" d="M3.66795 0H2.33797C0.80499 0 0 0.80499 0 2.33097V3.66096C0 5.18694 0.80499 5.99193 2.33097 5.99193H3.66096C5.18694 5.99193 5.99193 5.18694 5.99193 3.66096V2.33097C5.99893 0.80499 5.19394 0 3.66795 0Z" fill="#686E76"/>
<path opacity="0.4" d="M10.3389 0.524994H11.6689C12.3438 0.524994 12.7729 0.702015 13.0354 0.964469C13.2979 1.22692 13.4749 1.65604 13.4749 2.33097V3.66096C13.4749 4.33589 13.2979 4.765 13.0354 5.02746C12.7729 5.28991 12.3438 5.46693 11.6689 5.46693H10.3389C9.66399 5.46693 9.23487 5.28991 8.97242 5.02746C8.70996 4.765 8.53294 4.33589 8.53294 3.66096V2.33097C8.53294 1.65604 8.70996 1.22692 8.97242 0.964469C9.23487 0.702015 9.66399 0.524994 10.3389 0.524994Z" fill="#686E76" stroke="#686E76"/>
<path opacity="0.4" d="M11.6689 8.0009H10.3389C8.81294 8.0009 8.00795 8.80589 8.00795 10.3319V11.6619C8.00795 13.1878 8.81294 13.9928 10.3389 13.9928H11.6689C13.1949 13.9928 13.9999 13.1878 13.9999 11.6619V10.3319C13.9999 8.80589 13.1949 8.0009 11.6689 8.0009Z" fill="#686E76"/>
<path opacity="0.4" d="M3.66795 8.0009H2.33797C0.80499 8.0009 0 8.80589 0 10.3319V11.6619C0 13.1948 0.80499 13.9998 2.33097 13.9998H3.66096C5.18694 13.9998 5.99193 13.1948 5.99193 11.6689V10.3389C5.99893 8.80589 5.19394 8.0009 3.66795 8.0009Z" fill="#686E76"/>
</svg>
