<svg width="80" height="40" viewBox="0 0 80 40" fill="none" xmlns="http://www.w3.org/2000/svg">
<g clip-path="url(#clip0_0_98)">
<path fill-rule="evenodd" clip-rule="evenodd" d="M2.96282 13.5502H6.65559C7.47864 13.5502 8.0648 13.5955 8.4136 13.6836C8.87199 13.7955 9.22243 14.0122 9.46445 14.3362C9.70414 14.6601 9.81489 15.0246 9.7967 15.4343C9.78201 15.77 9.66567 16.1131 9.44813 16.4609C9.23036 16.8108 8.91653 17.0967 8.5043 17.3229C8.09208 17.5493 7.46675 17.7563 6.62574 17.9469C7.48027 18.1948 8.06387 18.509 8.38306 18.8948C8.70226 19.2832 8.84938 19.7309 8.82676 20.243C8.80554 20.7218 8.61995 21.1956 8.26765 21.6624C7.91534 22.1294 7.46278 22.4722 6.9053 22.689C6.34992 22.9057 5.34314 23.0129 3.8873 23.0129H0.00170898L0.102434 22.7558C0.478751 22.7558 0.750848 22.7199 0.916157 22.651C1.0817 22.5794 1.2181 22.4722 1.32349 22.3247C1.42864 22.1792 1.55734 21.8721 1.71216 21.4076L3.63712 15.5889C3.8325 14.9984 3.93463 14.603 3.94349 14.403C3.95072 14.2387 3.89079 14.1053 3.75906 13.9981C3.62756 13.8909 3.33611 13.8288 2.88075 13.8099L2.96282 13.5502ZM4.89244 17.7301C5.51847 17.7207 6.0144 17.6206 6.38513 17.43C6.75352 17.2395 7.05662 16.9276 7.29444 16.4918C7.53017 16.0583 7.65887 15.6463 7.67589 15.2603C7.69198 14.8983 7.59219 14.603 7.37652 14.3744C7.16318 14.1456 6.86683 14.0361 6.49005 14.0458L6.10837 14.0599L4.89244 17.7301ZM4.70452 18.2543L3.32585 22.4628C3.55621 22.4699 3.72758 22.4746 3.84276 22.4746C4.8661 22.4746 5.59145 22.1865 6.01697 21.6076C6.44225 21.0289 6.66981 20.4073 6.69896 19.7476C6.71295 19.4308 6.64766 19.1498 6.50567 18.9069C6.36134 18.6616 6.17109 18.4923 5.9307 18.3971C5.69264 18.3017 5.28322 18.2543 4.70452 18.2543ZM16.8138 16.6417L15.2727 21.2813L15.1088 21.8482C15.0915 21.9174 15.0822 21.9698 15.0808 22.0007C15.0782 22.0579 15.0973 22.1056 15.133 22.1483C15.1712 22.1889 15.2104 22.2104 15.2503 22.2104C15.3468 22.2104 15.4841 22.1365 15.6602 21.9863C15.7332 21.9268 15.9073 21.7125 16.1848 21.3458L16.4214 21.4719C16.0677 22.0746 15.7003 22.5152 15.3186 22.7938C14.9371 23.07 14.5312 23.2082 14.1055 23.2082C13.842 23.2082 13.6452 23.1392 13.5146 23.0035C13.382 22.8653 13.3216 22.6913 13.3307 22.4819C13.3388 22.3008 13.4265 21.9651 13.5965 21.4719L13.7863 20.905C13.2113 21.8317 12.672 22.4866 12.1633 22.8724C11.8688 23.0962 11.5605 23.2082 11.2383 23.2082C10.8149 23.2082 10.5169 23.032 10.3442 22.6819C10.1716 22.3294 10.0951 21.9339 10.1147 21.491C10.1436 20.836 10.3745 20.0834 10.8072 19.2355C11.24 18.3853 11.7897 17.7039 12.4547 17.1871C13.0029 16.7586 13.5086 16.5442 13.9721 16.5442C14.2283 16.5442 14.4321 16.6205 14.583 16.7704C14.7315 16.9229 14.8346 17.1991 14.8898 17.5991L15.1771 16.7395L16.8138 16.6417ZM14.5513 17.9684C14.5678 17.592 14.5212 17.3181 14.4132 17.1514C14.3361 17.0348 14.2258 16.9777 14.0847 16.9777C13.9411 16.9777 13.7923 17.0466 13.6331 17.1871C13.3123 17.4754 12.9548 18.059 12.5606 18.9425C12.1665 19.8239 11.9541 20.5837 11.9257 21.2266C11.9147 21.4742 11.9469 21.6506 12.022 21.7601C12.097 21.8697 12.184 21.9245 12.2805 21.9245C12.4876 21.9245 12.7023 21.8031 12.9245 21.5625C13.2409 21.2171 13.5347 20.7954 13.7991 20.2977C14.2703 19.4237 14.5212 18.6471 14.5513 17.9684ZM20.8848 16.5442L19.8962 19.538C20.5087 18.6639 20.9657 18.0661 21.2644 17.7445C21.7036 17.2801 22.0776 16.9633 22.3884 16.7966C22.6992 16.6275 22.9874 16.5442 23.2532 16.5442C23.4931 16.5442 23.6939 16.6346 23.8552 16.8134C24.0168 16.9918 24.0935 17.2253 24.0807 17.5134C24.069 17.7755 23.9986 18.0923 23.8716 18.4637L22.8578 21.4433C22.7734 21.703 22.7284 21.8721 22.7249 21.953C22.7228 21.9984 22.7398 22.0411 22.771 22.077C22.8046 22.115 22.8391 22.1341 22.8767 22.1341C22.9214 22.1341 22.9716 22.115 23.0226 22.077C23.191 21.9436 23.3616 21.7531 23.5372 21.5052C23.5824 21.4409 23.6526 21.3434 23.7501 21.2124L24.0063 21.3744C23.2782 22.5223 22.5449 23.0962 21.7992 23.0962C21.5146 23.0962 21.2945 23.0223 21.1413 22.8724C20.9878 22.7249 20.916 22.539 20.9258 22.315C20.9345 22.1197 21.0016 21.8293 21.1291 21.4433L22.1217 18.4637C22.1891 18.2684 22.2262 18.1232 22.2304 18.0305C22.2324 17.9804 22.2133 17.9351 22.1751 17.8947C22.1345 17.8541 22.0884 17.835 22.0319 17.835C21.8578 17.835 21.6409 17.9566 21.3831 18.1995C20.7209 18.8115 20.0666 19.7261 19.4203 20.9409L18.764 23.0129H17.0071L18.4942 18.5329C18.6383 18.0923 18.7134 17.7778 18.7215 17.592C18.7253 17.511 18.7092 17.4468 18.6763 17.392C18.6409 17.3396 18.584 17.2966 18.5031 17.2657C18.4196 17.2372 18.2653 17.2206 18.0347 17.2206L18.124 16.9562L20.4637 16.5442H20.8848ZM29.701 13.3358L27.5086 19.9358L29.15 18.4566L29.6954 17.9828C29.8553 17.8232 29.9647 17.6898 30.0309 17.5778C30.0694 17.5063 30.0911 17.4421 30.0936 17.3826C30.0981 17.2848 30.0568 17.2039 29.968 17.1373C29.8791 17.0728 29.6579 17.0277 29.3058 17.0062L29.393 16.7395H32.1965L32.1165 17.0062C31.7815 17.0849 31.5094 17.1753 31.2979 17.2778C31.1344 17.3564 30.9311 17.4872 30.6877 17.6683C30.3277 17.9422 30.0666 18.1542 29.9094 18.3017L29.5933 18.59L29.9292 20.5145C30.0563 21.2601 30.1573 21.6886 30.2298 21.8055C30.276 21.8744 30.3356 21.9101 30.4037 21.9101C30.5637 21.9101 30.7628 21.7195 31.0006 21.3385C31.0358 21.2863 31.0813 21.2147 31.1419 21.1217L31.3888 21.2813C31.0167 21.9339 30.6066 22.4295 30.1589 22.7676C29.8595 22.9961 29.5933 23.1106 29.3582 23.1106C29.1253 23.1106 28.9339 23.0249 28.7837 22.8557C28.6359 22.6866 28.4981 22.2413 28.3748 21.5196L28.099 19.9358L27.3116 20.6193L26.5165 23.0129H24.7594L27.3964 15.1342C27.5077 14.8006 27.5648 14.5744 27.5699 14.4578C27.5746 14.3506 27.5573 14.2649 27.5133 14.1957C27.4715 14.1291 27.4102 14.0791 27.3293 14.0458C27.2507 14.0146 27.0915 13.9981 26.8541 13.9981L26.9266 13.7384L29.2871 13.3358H29.701Z" fill="#093F7A"/>
<path fill-rule="evenodd" clip-rule="evenodd" d="M51.1804 13.1364H55.5384C56.0688 13.1364 56.5013 13.1609 56.8427 13.2077C57.1817 13.2568 57.5044 13.3769 57.8126 13.571C58.1187 13.7649 58.3563 14.021 58.5205 14.3376C58.6846 14.6564 58.7574 15.0041 58.7406 15.3829C58.7191 15.8666 58.5582 16.3214 58.2598 16.7515C57.959 17.1794 57.4962 17.4891 56.8737 17.6808L56.8725 17.7075C57.869 18.0173 58.3435 18.6883 58.2976 19.7248C58.2642 20.4824 57.9233 21.169 57.2712 21.784C56.6209 22.4014 55.7181 22.7091 54.5605 22.7091H48.7388L51.1804 13.1364ZM53.1564 16.8786H54.1492C54.5785 16.8786 54.9121 16.8472 55.1481 16.7872C55.3863 16.7246 55.5813 16.5976 55.7328 16.4038C55.8867 16.2099 55.9657 16.0158 55.9744 15.8199C55.9846 15.5857 55.9159 15.4029 55.7631 15.2714C55.6127 15.1399 55.3073 15.0755 54.8473 15.0755H53.6039L53.1564 16.8786ZM52.1951 20.6519H53.7556C54.8561 20.6519 55.4227 20.282 55.4554 19.5418C55.467 19.2811 55.3968 19.076 55.2451 18.9246C55.0933 18.7752 54.7708 18.6994 54.28 18.6994H52.6952L52.1951 20.6519ZM69.7195 13.1364L69.1313 15.4877H66.0631L64.2009 22.7091H61.2668L63.1225 15.4877H60.1887L60.7812 13.1364H69.7195ZM79.9983 13.1364L77.5434 22.7091H74.8098L72.714 17.1458H72.6874L71.2684 22.7091H68.5216L70.9763 13.1364H73.71L75.7921 18.7128H75.8185L77.2515 13.1364H79.9983Z" fill="#093F7A"/>
<path fill-rule="evenodd" clip-rule="evenodd" d="M78.2997 23.6448C75.8727 23.743 58.1062 24.5294 54.9994 25.021C51.8928 25.5126 49.8541 25.5126 49.0774 26.0041C48.3007 26.4957 47.7181 26.8888 48.689 27.7737C49.6598 28.6584 50.2423 28.6584 51.1161 28.8551C51.9898 29.0517 52.7667 29.15 53.8345 28.462C54.9024 27.7737 56.2615 27.3804 58.4944 26.7906C64.9991 25.3159 78.2997 23.6448 78.2997 23.6448Z" fill="#E62129"/>
<path fill-rule="evenodd" clip-rule="evenodd" d="M37.238 20.1467L38.3658 19.428V20.8009L37.2433 21.5406L37.2266 21.5291L37.238 20.1467ZM39.5008 18.7048L40.6206 17.9911L41.7235 18.6977V20.0152L40.6682 19.284L39.5008 20.0532V18.7048ZM42.8214 19.4011L43.9674 20.1351V21.5697L42.8214 20.7757V19.4011ZM44.9611 20.7719L45.0355 20.8196L44.0413 21.5347L44.9611 20.7719Z" fill="#DAB96B"/>
<path fill-rule="evenodd" clip-rule="evenodd" d="M39.5007 21.513L40.5494 20.829L41.7234 21.584V23.0214L40.5968 22.2647L39.497 23.0457L38.8523 22.5943L39.5007 23.0379V21.513ZM42.8213 22.2904L42.843 22.3041L42.6332 22.4439L42.8213 22.3169V22.2904Z" fill="#DAB96B"/>
<path fill-rule="evenodd" clip-rule="evenodd" d="M36.1821 20.8196V14.9961L40.6238 12L44.9692 14.931V20.765L43.9673 21.5959V15.8279L40.6919 13.4435L37.2738 15.7172L37.2264 21.5406L36.1821 20.8196Z" fill="#093F7A"/>
<path fill-rule="evenodd" clip-rule="evenodd" d="M38.3657 22.2614V16.4937L40.6658 14.9423L42.8214 16.3962V22.3169L41.7234 23.0575V17.1033L40.6472 16.3773L39.5007 17.1505V23.0379L38.3657 22.2614Z" fill="#093F7A"/>
</g>
<defs>
<clipPath id="clip0_0_98">
<rect width="80" height="17" fill="white" transform="translate(0 12)"/>
</clipPath>
</defs>
</svg>
